{"title":"The Winning Season.2009.DvDRip.H264.Feel-Free","uid":6087423,"size":1290276162,"categoryP":"video","categoryS":"movies","magnet":"?xt=urn:btih:2dfdbe556b2b7930d096208204ac2ed63c11036d&amp;dn=The+Winning+Season.2009.DvDRip.H264.Feel-Free&amp;tr=udp%3A%2F%2Ftracker.openbittorrent.com%3A80&amp;tr=udp%3A%2F%2Fopen.demonii.com%3A1337&amp;tr=udp%3A%2F%2Ftracker.coppersurfer.tk%3A6969&amp;tr=udp%3A%2F%2Fexodus.desync.com%3A6969","seeders":0,"leechers":1,"uploader":"neon","files":-1,"time":1294393415,"description":"Genre:Comedy | Sport\nLanguage:English\n &lt;a href=&quot; http://www.imdb.com/title/tt1293842/&quot; rel=&quot;nofollow&quot; target=&quot;_NEW&quot;&gt; http://www.imdb.com/title/tt1293842/&lt;/a&gt;\nSource:DVD\nSubtitles:Romana\n\n\nFormat : MPEG-4\nFormat profile : Base Media\nCodec ID : isom\nFile size : 1.20 GiB\nDuration : 1h 42mn\nOverall bit rate : 1 668 Kbps\nMovie name : The.Winning.Season.2009.DvDRip.H264.Feel-Free\n\n\nVideo\nFormat settings, CABAC : Yes\nFormat settings, ReFrames : 4 frames\nCodec ID : avc1\nCodec ID/Info : Advanced Video Coding\nDuration : 1h 42mn\nBit rate mode : Variable\nBit rate : 1 500 Kbps\nWidth : 720 pixels\nHeight : 384 pixels\nDisplay aspect ratio : 1.875\nFrame rate mode : Constant\nFrame rate : 23.976 fps\nColor space : YUV\nChroma subsampling : 4:2:0\nBit depth : 8 bits\nScan type : Progressive\nBits/(Pixel*Frame) : 0.226\nStream size : 1.08 GiB (90%)\n\nAudio\nID : 2\nFormat : AAC\nFormat/Info : Advanced Audio Codec\nFormat version : Version 4\nFormat profile : LC\nCodec ID : 40\nDuration : 1h 42mn\nBit rate mode : Variable\nBit rate : 165 Kbps\nChannel(s) : 2 channels\nChannel positions : Front: L R\nSampling rate : 48.0 KHz\nStream size : 122 MiB (10%)\n\n\n\nPlot:\nA comedy centered on a has-been coach who is given a shot at redemption when he's asked to run his local high school's girls basketball team.\n\nTRAILER: &lt;a href=&quot; http://www.imdb.com/video/imdb/vi4091872793/&quot; rel=&quot;nofollow&quot; target=&quot;_NEW&quot;&gt; http://www.imdb.com/video/imdb/vi4091872793/&lt;/a&gt;\n &lt;a href=&quot;\nhttp://shareimage.org/images/59phf9xo4vfd7cqm5k2z.png&quot; rel=&quot;nofollow&quot; target=&quot;_NEW&quot;&gt;\nhttp://shareimage.org/images/59phf9xo4vfd7cqm5k2z.png&lt;/a&gt; &lt;a href=&quot;\nhttp://shareimage.org/images/nu7010y7ru9bgtqohq3f.png&quot; rel=&quot;nofollow&quot; target=&quot;_NEW&quot;&gt;\nhttp://shareimage.org/images/nu7010y7ru9bgtqohq3f.png&lt;/a&gt;","torrent":{"xt":"urn:btih:2dfdbe556b2b7930d096208204ac2ed63c11036d","amp;dn":"The+Winning+Season.2009.DvDRip.H264.Feel-Free","amp;tr":["udp%3A%2F%2Ftracker.openbittorrent.com%3A80","udp%3A%2F%2Fopen.demonii.com%3A1337","udp%3A%2F%2Ftracker.coppersurfer.tk%3A6969","udp%3A%2F%2Fexodus.desync.com%3A6969"],"infoHash":"2dfdbe556b2b7930d096208204ac2ed63c11036d","infoHashBuffer":{"type":"Buffer","data":[45,253,190,85,107,43,121,48,208,150,32,130,4,172,46,214,60,17,3,109]},"announce":[],"urlList":[]}}